<svg xmlns="http://www.w3.org/2000/svg" viewBox="0 0 960 600"><rect width="960" height="600" fill="#eff5f2"/><rect x="75" y="48" width="810" height="504" rx="18" fill="#fff" stroke="#ceddd5"/><rect x="110" y="82" width="180" height="26" rx="7" fill="#286b57"/><rect x="110" y="145" width="230" height="120" rx="10" fill="#edf5f1"/><text x="145" y="190" font-family="Arial" font-size="16" fill="#71857c">30 DAYS</text><text x="145" y="238" font-family="Arial" font-size="42" fill="#286b57">82%</text><rect x="365" y="145" width="230" height="120" rx="10" fill="#edf5f1"/><text x="400" y="190" font-family="Arial" font-size="16" fill="#71857c">LAST 7 DAYS</text><text x="400" y="238" font-family="Arial" font-size="42" fill="#286b57">71%</text><rect x="620" y="145" width="230" height="120" rx="10" fill="#edf5f1"/><text x="655" y="190" font-family="Arial" font-size="16" fill="#71857c">CHANGE</text><text x="655" y="238" font-family="Arial" font-size="42" fill="#b35f63">−18%</text><g transform="translate(110 330)"><g fill="#42aa82"><circle cx="18" cy="18" r="14"/><circle cx="64" cy="18" r="14"/><circle cx="110" cy="18" r="14"/><circle cx="202" cy="18" r="14"/><circle cx="294" cy="18" r="14"/></g><g fill="#e0e8e4" stroke="#a8b8b0"><circle cx="156" cy="18" r="14"/><circle cx="248" cy="18" r="14"/></g></g><text x="110" y="450" font-family="Arial" font-size="20" fill="#65786f">WEEKLY HABIT ACTIVITY</text></svg>
