<svg xmlns="http://www.w3.org/2000/svg" viewBox="0 0 960 600"><rect width="960" height="600" fill="#eff5f2"/><rect x="230" y="35" width="500" height="530" rx="28" fill="#fff" stroke="#cfddd6"/><rect x="270" y="78" width="190" height="25" rx="7" fill="#286b57"/><text x="270" y="150" font-family="Arial" font-size="16" fill="#6d8077">TODAY</text><rect x="270" y="170" width="420" height="56" rx="9" fill="#dff1e9"/><text x="300" y="206" font-family="Arial" font-size="17" fill="#286b57">COMPLETED</text><text x="270" y="280" font-family="Arial" font-size="16" fill="#6d8077">CALENDAR</text><g transform="translate(270 310)"><g fill="#43ad86"><circle cx="16" cy="16" r="13"/><circle cx="61" cy="16" r="13"/><circle cx="106" cy="16" r="13"/><circle cx="196" cy="16" r="13"/><circle cx="286" cy="16" r="13"/><circle cx="331" cy="16" r="13"/></g><g fill="#e2eae6" stroke="#a7b7af"><circle cx="151" cy="16" r="13"/><circle cx="241" cy="16" r="13"/><circle cx="376" cy="16" r="13"/></g></g><rect x="270" y="420" width="420" height="55" rx="9" fill="#f0f4f2"/><rect x="270" y="490" width="420" height="42" rx="9" fill="#286b57"/></svg>
