<svg xmlns="http://www.w3.org/2000/svg" viewBox="0 0 960 600"><rect width="960" height="600" fill="#eef1f1"/><rect x="45" y="45" width="870" height="510" rx="16" fill="#fff" stroke="#cad4d2"/><rect x="45" y="45" width="190" height="510" rx="16" fill="#244a42"/><rect x="76" y="88" width="95" height="20" rx="6" fill="#dceae7"/><rect x="76" y="158" width="120" height="13" rx="5" fill="#79a99e"/><rect x="76" y="204" width="100" height="13" rx="5" fill="#79a99e"/><rect x="270" y="80" width="220" height="30" rx="7" fill="#244a42"/><rect x="270" y="145" width="610" height="75" rx="10" fill="#f1f5f4"/><rect x="292" y="168" width="180" height="15" rx="5" fill="#687874"/><rect x="710" y="163" width="130" height="32" rx="7" fill="#cbe7df"/><rect x="270" y="240" width="610" height="75" rx="10" fill="#f1f5f4"/><rect x="292" y="263" width="220" height="15" rx="5" fill="#687874"/><rect x="710" y="258" width="130" height="32" rx="7" fill="#f0d6ba"/><rect x="270" y="335" width="610" height="75" rx="10" fill="#f1f5f4"/><text x="270" y="500" font-family="Arial" font-size="22" fill="#61716d">ADMIN PANEL PLACEHOLDER</text></svg>
