<svg xmlns="http://www.w3.org/2000/svg" viewBox="0 0 960 600"><rect width="960" height="600" fill="#edf3f6"/><rect x="250" y="40" width="460" height="520" rx="28" fill="#fff" stroke="#cbd9e1"/><rect x="292" y="80" width="150" height="25" rx="7" fill="#315a78"/><text x="292" y="160" font-family="Arial" font-size="16" fill="#657985">NOTIFICATION TIME</text><rect x="292" y="180" width="376" height="58" rx="9" fill="#edf3f6"/><text x="432" y="218" font-family="Arial" font-size="24" fill="#315a78">08:30</text><text x="292" y="295" font-family="Arial" font-size="16" fill="#657985">ACTIVE DAYS</text><g fill="#315a78"><rect x="292" y="320" width="44" height="44" rx="8"/><rect x="348" y="320" width="44" height="44" rx="8"/><rect x="404" y="320" width="44" height="44" rx="8"/><rect x="460" y="320" width="44" height="44" rx="8"/><rect x="516" y="320" width="44" height="44" rx="8"/></g><g fill="#d8e3e9"><rect x="572" y="320" width="44" height="44" rx="8"/><rect x="628" y="320" width="44" height="44" rx="8"/></g><rect x="292" y="450" width="376" height="58" rx="9" fill="#315a78"/></svg>
