<svg xmlns="http://www.w3.org/2000/svg" viewBox="0 0 960 600"><rect width="960" height="600" fill="#edf4f7"/><rect x="80" y="55" width="800" height="490" rx="18" fill="#fff" stroke="#cedce4"/><rect x="115" y="90" width="220" height="25" rx="7" fill="#315a78"/><g><rect x="115" y="150" width="730" height="70" rx="10" fill="#eef4f7"/><rect x="115" y="240" width="730" height="70" rx="10" fill="#eef4f7"/><rect x="115" y="330" width="730" height="70" rx="10" fill="#eef4f7"/><rect x="115" y="420" width="730" height="70" rx="10" fill="#eef4f7"/></g><g fill="#f0c55d"><circle cx="165" cy="185" r="19"/><circle cx="165" cy="275" r="19"/><circle cx="165" cy="365" r="19"/><circle cx="165" cy="455" r="19"/></g><g fill="#5e7180"><rect x="215" y="175" width="190" height="15" rx="5"/><rect x="215" y="265" width="220" height="15" rx="5"/><rect x="215" y="355" width="175" height="15" rx="5"/><rect x="215" y="445" width="205" height="15" rx="5"/></g><text x="675" y="190" font-family="Arial" font-size="22" fill="#315a78">18°</text><text x="675" y="280" font-family="Arial" font-size="22" fill="#315a78">16°</text><text x="675" y="370" font-family="Arial" font-size="22" fill="#315a78">14°</text><text x="675" y="460" font-family="Arial" font-size="22" fill="#315a78">12°</text></svg>
